<mxfile host="app.diagrams.net" modified="2024-03-29T19:17:29.727Z" agent="Mozilla/5.0 (Windows NT 10.0; Win64; x64) AppleWebKit/537.36 (KHTML, like Gecko) Chrome/123.0.0.0 Safari/537.36" etag="pm81LS1TeYiuAZvGj4rN" version="24.1.0" type="google">
  <diagram name="Página-1" id="9O27o1zEOjtQqT3VkxsY">
    <mxGraphModel grid="1" page="1" gridSize="10" guides="1" tooltips="1" connect="1" arrows="1" fold="1" pageScale="1" pageWidth="827" pageHeight="1169" math="0" shadow="0">
      <root>
        <mxCell id="0" />
        <mxCell id="1" parent="0" />
        <mxCell id="8p4lT3e-SaF0_-d7hNdW-6" value="" style="edgeStyle=orthogonalEdgeStyle;rounded=0;orthogonalLoop=1;jettySize=auto;html=1;" edge="1" parent="1" source="8p4lT3e-SaF0_-d7hNdW-1" target="8p4lT3e-SaF0_-d7hNdW-3">
          <mxGeometry relative="1" as="geometry" />
        </mxCell>
        <mxCell id="8p4lT3e-SaF0_-d7hNdW-1" value="Início&amp;nbsp;" style="strokeWidth=2;html=1;shape=mxgraph.flowchart.start_1;whiteSpace=wrap;" vertex="1" parent="1">
          <mxGeometry x="314" y="40" width="100" height="50" as="geometry" />
        </mxCell>
        <mxCell id="8p4lT3e-SaF0_-d7hNdW-7" value="" style="edgeStyle=orthogonalEdgeStyle;rounded=0;orthogonalLoop=1;jettySize=auto;html=1;" edge="1" parent="1" source="8p4lT3e-SaF0_-d7hNdW-2" target="8p4lT3e-SaF0_-d7hNdW-5">
          <mxGeometry relative="1" as="geometry" />
        </mxCell>
        <mxCell id="8p4lT3e-SaF0_-d7hNdW-2" value="" style="verticalLabelPosition=bottom;verticalAlign=top;html=1;shape=card;whiteSpace=wrap;size=20;arcSize=12;" vertex="1" parent="1">
          <mxGeometry x="314" y="130" width="100" height="50" as="geometry" />
        </mxCell>
        <mxCell id="8p4lT3e-SaF0_-d7hNdW-3" value="n1" style="text;strokeColor=none;align=center;fillColor=none;html=1;verticalAlign=middle;whiteSpace=wrap;rounded=0;" vertex="1" parent="1">
          <mxGeometry x="334" y="130" width="60" height="30" as="geometry" />
        </mxCell>
        <mxCell id="8p4lT3e-SaF0_-d7hNdW-9" value="" style="edgeStyle=orthogonalEdgeStyle;rounded=0;orthogonalLoop=1;jettySize=auto;html=1;" edge="1" parent="1" source="8p4lT3e-SaF0_-d7hNdW-4" target="8p4lT3e-SaF0_-d7hNdW-8">
          <mxGeometry relative="1" as="geometry" />
        </mxCell>
        <mxCell id="8p4lT3e-SaF0_-d7hNdW-4" value="" style="verticalLabelPosition=bottom;verticalAlign=top;html=1;shape=card;whiteSpace=wrap;size=20;arcSize=12;" vertex="1" parent="1">
          <mxGeometry x="314" y="230" width="100" height="50" as="geometry" />
        </mxCell>
        <mxCell id="8p4lT3e-SaF0_-d7hNdW-5" value="n2" style="text;strokeColor=none;align=center;fillColor=none;html=1;verticalAlign=middle;whiteSpace=wrap;rounded=0;" vertex="1" parent="1">
          <mxGeometry x="334" y="230" width="60" height="30" as="geometry" />
        </mxCell>
        <mxCell id="8p4lT3e-SaF0_-d7hNdW-15" value="" style="edgeStyle=orthogonalEdgeStyle;rounded=0;orthogonalLoop=1;jettySize=auto;html=1;" edge="1" parent="1" source="8p4lT3e-SaF0_-d7hNdW-8" target="8p4lT3e-SaF0_-d7hNdW-14">
          <mxGeometry relative="1" as="geometry" />
        </mxCell>
        <mxCell id="8p4lT3e-SaF0_-d7hNdW-8" value="n1 = n2" style="strokeWidth=2;html=1;shape=mxgraph.flowchart.decision;whiteSpace=wrap;" vertex="1" parent="1">
          <mxGeometry x="314" y="320" width="100" height="80" as="geometry" />
        </mxCell>
        <mxCell id="8p4lT3e-SaF0_-d7hNdW-10" style="edgeStyle=orthogonalEdgeStyle;rounded=0;orthogonalLoop=1;jettySize=auto;html=1;entryX=0.41;entryY=1.033;entryDx=0;entryDy=0;entryPerimeter=0;" edge="1" parent="1" source="8p4lT3e-SaF0_-d7hNdW-8" target="8p4lT3e-SaF0_-d7hNdW-12">
          <mxGeometry relative="1" as="geometry">
            <Array as="points">
              <mxPoint x="560" y="360" />
            </Array>
          </mxGeometry>
        </mxCell>
        <mxCell id="8p4lT3e-SaF0_-d7hNdW-11" value="V" style="text;strokeColor=none;align=center;fillColor=none;html=1;verticalAlign=middle;whiteSpace=wrap;rounded=0;" vertex="1" parent="1">
          <mxGeometry x="414" y="330" width="60" height="30" as="geometry" />
        </mxCell>
        <mxCell id="8p4lT3e-SaF0_-d7hNdW-13" value="" style="edgeStyle=orthogonalEdgeStyle;rounded=0;orthogonalLoop=1;jettySize=auto;html=1;" edge="1" parent="1" source="8p4lT3e-SaF0_-d7hNdW-12" target="8p4lT3e-SaF0_-d7hNdW-4">
          <mxGeometry relative="1" as="geometry" />
        </mxCell>
        <mxCell id="8p4lT3e-SaF0_-d7hNdW-12" value="n2 nao pode ser igual a n1" style="strokeWidth=2;html=1;shape=mxgraph.flowchart.document2;whiteSpace=wrap;size=0.25;" vertex="1" parent="1">
          <mxGeometry x="520" y="225" width="100" height="60" as="geometry" />
        </mxCell>
        <mxCell id="8p4lT3e-SaF0_-d7hNdW-18" value="" style="edgeStyle=orthogonalEdgeStyle;rounded=0;orthogonalLoop=1;jettySize=auto;html=1;" edge="1" parent="1" source="8p4lT3e-SaF0_-d7hNdW-14" target="8p4lT3e-SaF0_-d7hNdW-17">
          <mxGeometry relative="1" as="geometry" />
        </mxCell>
        <mxCell id="8p4lT3e-SaF0_-d7hNdW-29" value="" style="edgeStyle=orthogonalEdgeStyle;rounded=0;orthogonalLoop=1;jettySize=auto;html=1;" edge="1" parent="1" source="8p4lT3e-SaF0_-d7hNdW-14" target="8p4lT3e-SaF0_-d7hNdW-26">
          <mxGeometry relative="1" as="geometry" />
        </mxCell>
        <mxCell id="8p4lT3e-SaF0_-d7hNdW-14" value="n1 &amp;gt; n2" style="strokeWidth=2;html=1;shape=mxgraph.flowchart.decision;whiteSpace=wrap;" vertex="1" parent="1">
          <mxGeometry x="314" y="450" width="100" height="80" as="geometry" />
        </mxCell>
        <mxCell id="8p4lT3e-SaF0_-d7hNdW-16" value="F" style="text;strokeColor=none;align=center;fillColor=none;html=1;verticalAlign=middle;whiteSpace=wrap;rounded=0;" vertex="1" parent="1">
          <mxGeometry x="340" y="410" width="60" height="30" as="geometry" />
        </mxCell>
        <mxCell id="8p4lT3e-SaF0_-d7hNdW-20" value="" style="edgeStyle=orthogonalEdgeStyle;rounded=0;orthogonalLoop=1;jettySize=auto;html=1;" edge="1" parent="1" source="8p4lT3e-SaF0_-d7hNdW-17" target="8p4lT3e-SaF0_-d7hNdW-19">
          <mxGeometry relative="1" as="geometry" />
        </mxCell>
        <mxCell id="8p4lT3e-SaF0_-d7hNdW-17" value="maior = n1" style="rounded=1;whiteSpace=wrap;html=1;absoluteArcSize=1;arcSize=14;strokeWidth=2;" vertex="1" parent="1">
          <mxGeometry x="460" y="470" width="100" height="40" as="geometry" />
        </mxCell>
        <mxCell id="8p4lT3e-SaF0_-d7hNdW-22" value="" style="edgeStyle=orthogonalEdgeStyle;rounded=0;orthogonalLoop=1;jettySize=auto;html=1;" edge="1" parent="1" source="8p4lT3e-SaF0_-d7hNdW-19" target="8p4lT3e-SaF0_-d7hNdW-21">
          <mxGeometry relative="1" as="geometry" />
        </mxCell>
        <mxCell id="8p4lT3e-SaF0_-d7hNdW-19" value="menor = n2" style="rounded=1;whiteSpace=wrap;html=1;absoluteArcSize=1;arcSize=14;strokeWidth=2;" vertex="1" parent="1">
          <mxGeometry x="610" y="470" width="100" height="40" as="geometry" />
        </mxCell>
        <mxCell id="8p4lT3e-SaF0_-d7hNdW-24" value="" style="edgeStyle=orthogonalEdgeStyle;rounded=0;orthogonalLoop=1;jettySize=auto;html=1;" edge="1" parent="1" source="8p4lT3e-SaF0_-d7hNdW-21" target="8p4lT3e-SaF0_-d7hNdW-23">
          <mxGeometry relative="1" as="geometry" />
        </mxCell>
        <mxCell id="8p4lT3e-SaF0_-d7hNdW-21" value="i = menor" style="rounded=1;whiteSpace=wrap;html=1;absoluteArcSize=1;arcSize=14;strokeWidth=2;" vertex="1" parent="1">
          <mxGeometry x="610" y="565" width="100" height="40" as="geometry" />
        </mxCell>
        <mxCell id="8p4lT3e-SaF0_-d7hNdW-36" value="" style="edgeStyle=orthogonalEdgeStyle;rounded=0;orthogonalLoop=1;jettySize=auto;html=1;" edge="1" parent="1" source="8p4lT3e-SaF0_-d7hNdW-23" target="8p4lT3e-SaF0_-d7hNdW-34">
          <mxGeometry relative="1" as="geometry" />
        </mxCell>
        <mxCell id="8p4lT3e-SaF0_-d7hNdW-23" value="somaNrs = 0" style="rounded=1;whiteSpace=wrap;html=1;absoluteArcSize=1;arcSize=14;strokeWidth=2;" vertex="1" parent="1">
          <mxGeometry x="460" y="565" width="100" height="40" as="geometry" />
        </mxCell>
        <mxCell id="8p4lT3e-SaF0_-d7hNdW-31" value="" style="edgeStyle=orthogonalEdgeStyle;rounded=0;orthogonalLoop=1;jettySize=auto;html=1;" edge="1" parent="1" source="8p4lT3e-SaF0_-d7hNdW-25" target="8p4lT3e-SaF0_-d7hNdW-27">
          <mxGeometry relative="1" as="geometry" />
        </mxCell>
        <mxCell id="8p4lT3e-SaF0_-d7hNdW-25" value="menor = n1" style="rounded=1;whiteSpace=wrap;html=1;absoluteArcSize=1;arcSize=14;strokeWidth=2;" vertex="1" parent="1">
          <mxGeometry x="10" y="470" width="100" height="40" as="geometry" />
        </mxCell>
        <mxCell id="8p4lT3e-SaF0_-d7hNdW-30" value="" style="edgeStyle=orthogonalEdgeStyle;rounded=0;orthogonalLoop=1;jettySize=auto;html=1;" edge="1" parent="1" source="8p4lT3e-SaF0_-d7hNdW-26" target="8p4lT3e-SaF0_-d7hNdW-25">
          <mxGeometry relative="1" as="geometry" />
        </mxCell>
        <mxCell id="8p4lT3e-SaF0_-d7hNdW-26" value="maior = n2" style="rounded=1;whiteSpace=wrap;html=1;absoluteArcSize=1;arcSize=14;strokeWidth=2;" vertex="1" parent="1">
          <mxGeometry x="160" y="470" width="100" height="40" as="geometry" />
        </mxCell>
        <mxCell id="8p4lT3e-SaF0_-d7hNdW-32" value="" style="edgeStyle=orthogonalEdgeStyle;rounded=0;orthogonalLoop=1;jettySize=auto;html=1;" edge="1" parent="1" source="8p4lT3e-SaF0_-d7hNdW-27" target="8p4lT3e-SaF0_-d7hNdW-28">
          <mxGeometry relative="1" as="geometry" />
        </mxCell>
        <mxCell id="8p4lT3e-SaF0_-d7hNdW-27" value="i = menor" style="rounded=1;whiteSpace=wrap;html=1;absoluteArcSize=1;arcSize=14;strokeWidth=2;" vertex="1" parent="1">
          <mxGeometry x="10" y="565" width="100" height="40" as="geometry" />
        </mxCell>
        <mxCell id="8p4lT3e-SaF0_-d7hNdW-47" value="" style="edgeStyle=orthogonalEdgeStyle;rounded=0;orthogonalLoop=1;jettySize=auto;html=1;" edge="1" parent="1" source="8p4lT3e-SaF0_-d7hNdW-28" target="8p4lT3e-SaF0_-d7hNdW-33">
          <mxGeometry relative="1" as="geometry" />
        </mxCell>
        <mxCell id="8p4lT3e-SaF0_-d7hNdW-28" value="somaNrs = 0" style="rounded=1;whiteSpace=wrap;html=1;absoluteArcSize=1;arcSize=14;strokeWidth=2;" vertex="1" parent="1">
          <mxGeometry x="154" y="565" width="100" height="40" as="geometry" />
        </mxCell>
        <mxCell id="8p4lT3e-SaF0_-d7hNdW-50" value="" style="edgeStyle=orthogonalEdgeStyle;rounded=0;orthogonalLoop=1;jettySize=auto;html=1;" edge="1" parent="1" source="8p4lT3e-SaF0_-d7hNdW-33" target="8p4lT3e-SaF0_-d7hNdW-45">
          <mxGeometry relative="1" as="geometry" />
        </mxCell>
        <mxCell id="8p4lT3e-SaF0_-d7hNdW-56" value="" style="edgeStyle=orthogonalEdgeStyle;rounded=0;orthogonalLoop=1;jettySize=auto;html=1;" edge="1" parent="1" source="8p4lT3e-SaF0_-d7hNdW-33" target="8p4lT3e-SaF0_-d7hNdW-53">
          <mxGeometry relative="1" as="geometry" />
        </mxCell>
        <mxCell id="8p4lT3e-SaF0_-d7hNdW-33" value="i &amp;gt; maior" style="strokeWidth=2;html=1;shape=mxgraph.flowchart.decision;whiteSpace=wrap;" vertex="1" parent="1">
          <mxGeometry x="154" y="650" width="100" height="80" as="geometry" />
        </mxCell>
        <mxCell id="8p4lT3e-SaF0_-d7hNdW-37" value="" style="edgeStyle=orthogonalEdgeStyle;rounded=0;orthogonalLoop=1;jettySize=auto;html=1;" edge="1" parent="1" source="8p4lT3e-SaF0_-d7hNdW-34" target="8p4lT3e-SaF0_-d7hNdW-35">
          <mxGeometry relative="1" as="geometry" />
        </mxCell>
        <mxCell id="8p4lT3e-SaF0_-d7hNdW-55" value="" style="edgeStyle=orthogonalEdgeStyle;rounded=0;orthogonalLoop=1;jettySize=auto;html=1;" edge="1" parent="1" source="8p4lT3e-SaF0_-d7hNdW-34" target="8p4lT3e-SaF0_-d7hNdW-53">
          <mxGeometry relative="1" as="geometry" />
        </mxCell>
        <mxCell id="8p4lT3e-SaF0_-d7hNdW-34" value="i &amp;gt; maior" style="strokeWidth=2;html=1;shape=mxgraph.flowchart.decision;whiteSpace=wrap;" vertex="1" parent="1">
          <mxGeometry x="460" y="650" width="100" height="80" as="geometry" />
        </mxCell>
        <mxCell id="8p4lT3e-SaF0_-d7hNdW-40" value="" style="edgeStyle=orthogonalEdgeStyle;rounded=0;orthogonalLoop=1;jettySize=auto;html=1;" edge="1" parent="1" source="8p4lT3e-SaF0_-d7hNdW-35" target="8p4lT3e-SaF0_-d7hNdW-38">
          <mxGeometry relative="1" as="geometry" />
        </mxCell>
        <mxCell id="8p4lT3e-SaF0_-d7hNdW-35" value="somaNrs = somaNrs + i" style="rounded=1;whiteSpace=wrap;html=1;absoluteArcSize=1;arcSize=14;strokeWidth=2;" vertex="1" parent="1">
          <mxGeometry x="445" y="760" width="130" height="40" as="geometry" />
        </mxCell>
        <mxCell id="8p4lT3e-SaF0_-d7hNdW-38" value="i = i + 1" style="rounded=1;whiteSpace=wrap;html=1;absoluteArcSize=1;arcSize=14;strokeWidth=2;" vertex="1" parent="1">
          <mxGeometry x="445" y="860" width="130" height="40" as="geometry" />
        </mxCell>
        <mxCell id="8p4lT3e-SaF0_-d7hNdW-39" style="edgeStyle=orthogonalEdgeStyle;rounded=0;orthogonalLoop=1;jettySize=auto;html=1;entryX=1;entryY=0.5;entryDx=0;entryDy=0;entryPerimeter=0;" edge="1" parent="1" source="8p4lT3e-SaF0_-d7hNdW-38" target="8p4lT3e-SaF0_-d7hNdW-34">
          <mxGeometry relative="1" as="geometry">
            <Array as="points">
              <mxPoint x="680" y="880" />
              <mxPoint x="680" y="690" />
            </Array>
          </mxGeometry>
        </mxCell>
        <mxCell id="8p4lT3e-SaF0_-d7hNdW-41" value="V" style="text;strokeColor=none;align=center;fillColor=none;html=1;verticalAlign=middle;whiteSpace=wrap;rounded=0;" vertex="1" parent="1">
          <mxGeometry x="400" y="460" width="60" height="30" as="geometry" />
        </mxCell>
        <mxCell id="8p4lT3e-SaF0_-d7hNdW-42" value="F" style="text;strokeColor=none;align=center;fillColor=none;html=1;verticalAlign=middle;whiteSpace=wrap;rounded=0;" vertex="1" parent="1">
          <mxGeometry x="260" y="460" width="60" height="30" as="geometry" />
        </mxCell>
        <mxCell id="8p4lT3e-SaF0_-d7hNdW-43" value="V" style="text;strokeColor=none;align=center;fillColor=none;html=1;verticalAlign=middle;whiteSpace=wrap;rounded=0;" vertex="1" parent="1">
          <mxGeometry x="414" y="660" width="60" height="30" as="geometry" />
        </mxCell>
        <mxCell id="8p4lT3e-SaF0_-d7hNdW-44" value="F" style="text;strokeColor=none;align=center;fillColor=none;html=1;verticalAlign=middle;whiteSpace=wrap;rounded=0;" vertex="1" parent="1">
          <mxGeometry x="490" y="730" width="60" height="30" as="geometry" />
        </mxCell>
        <mxCell id="8p4lT3e-SaF0_-d7hNdW-51" value="" style="edgeStyle=orthogonalEdgeStyle;rounded=0;orthogonalLoop=1;jettySize=auto;html=1;" edge="1" parent="1" source="8p4lT3e-SaF0_-d7hNdW-45" target="8p4lT3e-SaF0_-d7hNdW-46">
          <mxGeometry relative="1" as="geometry" />
        </mxCell>
        <mxCell id="8p4lT3e-SaF0_-d7hNdW-45" value="somaNrs = somaNrs + i" style="rounded=1;whiteSpace=wrap;html=1;absoluteArcSize=1;arcSize=14;strokeWidth=2;" vertex="1" parent="1">
          <mxGeometry x="139" y="760" width="130" height="40" as="geometry" />
        </mxCell>
        <mxCell id="8p4lT3e-SaF0_-d7hNdW-52" style="edgeStyle=orthogonalEdgeStyle;rounded=0;orthogonalLoop=1;jettySize=auto;html=1;" edge="1" parent="1" source="8p4lT3e-SaF0_-d7hNdW-46">
          <mxGeometry relative="1" as="geometry">
            <mxPoint x="150" y="690" as="targetPoint" />
            <Array as="points">
              <mxPoint x="40" y="880" />
              <mxPoint x="40" y="690" />
            </Array>
          </mxGeometry>
        </mxCell>
        <mxCell id="8p4lT3e-SaF0_-d7hNdW-46" value="i = i + 1" style="rounded=1;whiteSpace=wrap;html=1;absoluteArcSize=1;arcSize=14;strokeWidth=2;" vertex="1" parent="1">
          <mxGeometry x="139" y="860" width="130" height="40" as="geometry" />
        </mxCell>
        <mxCell id="8p4lT3e-SaF0_-d7hNdW-58" value="" style="edgeStyle=orthogonalEdgeStyle;rounded=0;orthogonalLoop=1;jettySize=auto;html=1;" edge="1" parent="1" source="8p4lT3e-SaF0_-d7hNdW-53" target="8p4lT3e-SaF0_-d7hNdW-54">
          <mxGeometry relative="1" as="geometry" />
        </mxCell>
        <mxCell id="8p4lT3e-SaF0_-d7hNdW-53" value="Exibir maior" style="strokeWidth=2;html=1;shape=mxgraph.flowchart.document2;whiteSpace=wrap;size=0.25;" vertex="1" parent="1">
          <mxGeometry x="314" y="660" width="100" height="60" as="geometry" />
        </mxCell>
        <mxCell id="8p4lT3e-SaF0_-d7hNdW-60" value="" style="edgeStyle=orthogonalEdgeStyle;rounded=0;orthogonalLoop=1;jettySize=auto;html=1;" edge="1" parent="1" source="8p4lT3e-SaF0_-d7hNdW-54" target="8p4lT3e-SaF0_-d7hNdW-59">
          <mxGeometry relative="1" as="geometry" />
        </mxCell>
        <mxCell id="8p4lT3e-SaF0_-d7hNdW-54" value="Exibir somaNrs" style="strokeWidth=2;html=1;shape=mxgraph.flowchart.document2;whiteSpace=wrap;size=0.25;" vertex="1" parent="1">
          <mxGeometry x="314" y="760" width="100" height="60" as="geometry" />
        </mxCell>
        <mxCell id="8p4lT3e-SaF0_-d7hNdW-57" value="V" style="text;strokeColor=none;align=center;fillColor=none;html=1;verticalAlign=middle;whiteSpace=wrap;rounded=0;" vertex="1" parent="1">
          <mxGeometry x="240" y="660" width="60" height="30" as="geometry" />
        </mxCell>
        <mxCell id="8p4lT3e-SaF0_-d7hNdW-59" value="Fim" style="strokeWidth=2;html=1;shape=mxgraph.flowchart.terminator;whiteSpace=wrap;" vertex="1" parent="1">
          <mxGeometry x="310" y="850" width="100" height="50" as="geometry" />
        </mxCell>
      </root>
    </mxGraphModel>
  </diagram>
</mxfile>
